# xmcd CD database file
#
# Track frame offsets:
#	150
#	19905
#	42720
#	61602
#	71125
#	90765
#	105750
#
# Disc length: 1802 seconds
#
# Revision: 0
# Processed by: cddbd v1.5.1PL2 Copyright (c) Steve Scherf et al.
# Submitted via: CDex 1.51
#
DISCID=4d070807
DTITLE=Doll - Doll?
DYEAR=1996
DGENRE=Vocal
TTITLE0=乾いたキス
TTITLE1=罰
TTITLE2=楽園
TTITLE3=野ばらの日曜日
TTITLE4=屋根裏部屋
TTITLE5=窓の中の私
TTITLE6=赤い魚
EXTD=YEAR: 1996
EXTT0=
EXTT1=
EXTT2=
EXTT3=
EXTT4=
EXTT5=
EXTT6=
PLAYORDER=
